ISO-10303-21;
HEADER;
FILE_DESCRIPTION (( 'STEP AP214' ),
    '1' );
FILE_NAME ('chassis body shaft_ AL 2pc.STEP',
    '2026-08-07T04:41:02',
    ( '' ),
    ( '' ),
    'SwSTEP 2.0',
    'SolidWorks 2025',
    '' );
FILE_SCHEMA (( 'AUTOMOTIVE_DESIGN' ));
ENDSEC;

DATA;
#1 = CARTESIAN_POINT ( 'NONE',  ( -121.0666666666666629, 236.0000000000000284, -31.00000000000001421 ) ) ;
#2 = AXIS2_PLACEMENT_3D ( 'NONE', #90, #177, #13 ) ;
#3 = CARTESIAN_POINT ( 'NONE',  ( -121.0666666666666629, 236.0000000000000284, 25.00000000000001066 ) ) ;
#4 = ADVANCED_FACE ( 'NONE', ( #182 ), #86, .T. ) ;
#5 = EDGE_LOOP ( 'NONE', ( #211, #192 ) ) ;
#6 = AXIS2_PLACEMENT_3D ( 'NONE', #12, #89, #227 ) ;
#7 = ORIENTED_EDGE ( 'NONE', *, *, #40, .T. ) ;
#8 = DIRECTION ( 'NONE',  ( 0.000000000000000000, 0.000000000000000000, -1.000000000000000000 ) ) ;
#9 = VERTEX_POINT ( 'NONE', #127 ) ;
#10 = SURFACE_STYLE_FILL_AREA ( #43 ) ;
#11 = PRODUCT_DEFINITION_CONTEXT ( 'detailed design', #176, 'design' ) ;
#12 = CARTESIAN_POINT ( 'NONE',  ( -121.0666666666666629, 6.000000000000000000, 28.00000000000001776 ) ) ;
#13 = DIRECTION ( 'NONE',  ( 1.000000000000000000, 0.000000000000000000, 0.000000000000000000 ) ) ;
#14 = DIRECTION ( 'NONE',  ( 0.000000000000000000, 1.000000000000000000, 0.000000000000000000 ) ) ;
#15 = DIRECTION ( 'NONE',  ( -0.000000000000000000, -1.000000000000000000, -0.000000000000000000 ) ) ;
#16 = CYLINDRICAL_SURFACE ( 'NONE', #110, 2.999999999999995559 ) ;
#17 = ORIENTED_EDGE ( 'NONE', *, *, #155, .F. ) ;
#18 = CARTESIAN_POINT ( 'NONE',  ( -121.0666666666666629, 236.0000000000000284, -28.00000000000001776 ) ) ;
#19 = FACE_OUTER_BOUND ( 'NONE', #122, .T. ) ;
#20 = LINE ( 'NONE', #3, #158 ) ;
#21 = VECTOR ( 'NONE', #36, 1000.000000000000000 ) ;
#22 = CARTESIAN_POINT ( 'NONE',  ( -121.0666666666666629, 236.0000000000000284, 25.00000000000001066 ) ) ;
#23 = PRODUCT_RELATED_PRODUCT_CATEGORY ( 'part', '', ( #180 ) ) ;
#24 = SURFACE_STYLE_USAGE ( .BOTH. , #194 ) ;
#25 = ADVANCED_BREP_SHAPE_REPRESENTATION ( 'chassis body shaft_ AL 2pc', ( #187, #190, #2 ), #99 ) ;
#26 = PRESENTATION_STYLE_ASSIGNMENT (( #138 ) ) ;
#27 = ADVANCED_FACE ( 'NONE', ( #197 ), #228, .F. ) ;
#28 =( GEOMETRIC_REPRESENTATION_CONTEXT ( 3 ) GLOBAL_UNCERTAINTY_ASSIGNED_CONTEXT ( ( #62 ) ) GLOBAL_UNIT_ASSIGNED_CONTEXT ( ( #188, #139, #68 ) ) REPRESENTATION_CONTEXT ( 'NONE', 'WORKASPACE' ) );
#29 =( GEOMETRIC_REPRESENTATION_CONTEXT ( 3 ) GLOBAL_UNCERTAINTY_ASSIGNED_CONTEXT ( ( #149 ) ) GLOBAL_UNIT_ASSIGNED_CONTEXT ( ( #105, #83, #123 ) ) REPRESENTATION_CONTEXT ( 'NONE', 'WORKASPACE' ) );
#30 = ADVANCED_FACE ( 'NONE', ( #92 ), #159, .F. ) ;
#31 = VERTEX_POINT ( 'NONE', #199 ) ;
#32 = CARTESIAN_POINT ( 'NONE',  ( -121.0666666666666629, 6.000000000000000000, -28.00000000000001776 ) ) ;
#33 = CIRCLE ( 'NONE', #101, 2.999999999999995559 ) ;
#34 = EDGE_LOOP ( 'NONE', ( #189, #213 ) ) ;
#35 = CARTESIAN_POINT ( 'NONE',  ( -121.0666666666666629, 236.0000000000000284, -25.00000000000002132 ) ) ;
#36 = DIRECTION ( 'NONE',  ( -0.000000000000000000, -1.000000000000000000, -0.000000000000000000 ) ) ;
#37 = EDGE_CURVE ( 'NONE', #175, #31, #33, .T. ) ;
#38 = LINE ( 'NONE', #1, #217 ) ;
#39 = DIRECTION ( 'NONE',  ( -0.000000000000000000, -1.000000000000000000, -0.000000000000000000 ) ) ;
#40 = EDGE_CURVE ( 'NONE', #71, #175, #38, .T. ) ;
#41 = CARTESIAN_POINT ( 'NONE',  ( -121.0666666666666629, 236.0000000000000284, -28.00000000000001776 ) ) ;
#42 = ORIENTED_EDGE ( 'NONE', *, *, #181, .F. ) ;
#43 = FILL_AREA_STYLE ('',( #224 ) ) ;
#44 = EDGE_LOOP ( 'NONE', ( #17, #137, #7, #79 ) ) ;
#45 = FILL_AREA_STYLE ('',( #225 ) ) ;
#46 = ORIENTED_EDGE ( 'NONE', *, *, #116, .F. ) ;
#47 = AXIS2_PLACEMENT_3D ( 'NONE', #41, #172, #8 ) ;
#48 = AXIS2_PLACEMENT_3D ( 'NONE', #135, #117, #162 ) ;
#49 = CARTESIAN_POINT ( 'NONE',  ( -121.0666666666666629, 236.0000000000000284, -28.00000000000001776 ) ) ;
#50 = DIRECTION ( 'NONE',  ( 0.000000000000000000, 1.000000000000000000, 0.000000000000000000 ) ) ;
#51 = APPLICATION_PROTOCOL_DEFINITION ( 'draft international standard', 'automotive_design', 1998, #176 ) ;
#52 = AXIS2_PLACEMENT_3D ( 'NONE', #94, #134, #144 ) ;
#53 = PRESENTATION_LAYER_ASSIGNMENT (  '', '', ( #130 ) ) ;
#54 = CARTESIAN_POINT ( 'NONE',  ( -121.0666666666666629, 236.0000000000000284, 28.00000000000001776 ) ) ;
#55 = PLANE ( 'NONE',  #59 ) ;
#56 = EDGE_CURVE ( 'NONE', #71, #124, #85, .T. ) ;
#57 = VECTOR ( 'NONE', #174, 1000.000000000000000 ) ;
#58 = DIRECTION ( 'NONE',  ( 0.000000000000000000, 1.000000000000000000, 0.000000000000000000 ) ) ;
#59 = AXIS2_PLACEMENT_3D ( 'NONE', #97, #58, #205 ) ;
#60 = CYLINDRICAL_SURFACE ( 'NONE', #166, 3.000000000000006217 ) ;
#61 = CARTESIAN_POINT ( 'NONE',  ( -121.0666666666666629, 236.0000000000000284, -28.00000000000001776 ) ) ;
#62 = UNCERTAINTY_MEASURE_WITH_UNIT (LENGTH_MEASURE( 1.000000000000000082E-05 ), #188, 'distance_accuracy_value', 'NONE');
#63 = ORIENTED_EDGE ( 'NONE', *, *, #120, .T. ) ;
#64 =( NAMED_UNIT ( * ) PLANE_ANGLE_UNIT ( ) SI_UNIT ( $, .RADIAN. ) );
#65 =( NAMED_UNIT ( * ) SI_UNIT ( $, .STERADIAN. ) SOLID_ANGLE_UNIT ( ) );
#66 = ORIENTED_EDGE ( 'NONE', *, *, #40, .F. ) ;
#67 = EDGE_CURVE ( 'NONE', #109, #102, #202, .T. ) ;
#68 =( NAMED_UNIT ( * ) SI_UNIT ( $, .STERADIAN. ) SOLID_ANGLE_UNIT ( ) );
#69 = SHAPE_DEFINITION_REPRESENTATION ( #198, #25 ) ;
#70 = STYLED_ITEM ( 'NONE', ( #26 ), #190 ) ;
#71 = VERTEX_POINT ( 'NONE', #142 ) ;
#72 = ADVANCED_FACE ( 'NONE', ( #184 ), #16, .T. ) ;
#73 = ORIENTED_EDGE ( 'NONE', *, *, #136, .F. ) ;
#74 = AXIS2_PLACEMENT_3D ( 'NONE', #49, #14, #93 ) ;
#75 = LINE ( 'NONE', #35, #57 ) ;
#76 = ADVANCED_FACE ( 'NONE', ( #19 ), #204, .T. ) ;
#77 = CARTESIAN_POINT ( 'NONE',  ( -121.0666666666666629, 236.0000000000000284, -25.00000000000002132 ) ) ;
#78 = AXIS2_PLACEMENT_3D ( 'NONE', #221, #146, #218 ) ;
#79 = ORIENTED_EDGE ( 'NONE', *, *, #37, .T. ) ;
#80 = MECHANICAL_DESIGN_GEOMETRIC_PRESENTATION_REPRESENTATION (  '', ( #130 ), #29 ) ;
#81 = DIRECTION ( 'NONE',  ( -0.000000000000000000, -1.000000000000000000, -0.000000000000000000 ) ) ;
#82 = EDGE_LOOP ( 'NONE', ( #128, #104 ) ) ;
#83 =( NAMED_UNIT ( * ) PLANE_ANGLE_UNIT ( ) SI_UNIT ( $, .RADIAN. ) );
#84 = DIRECTION ( 'NONE',  ( 0.000000000000000000, 0.000000000000000000, 1.000000000000000000 ) ) ;
#85 = CIRCLE ( 'NONE', #118, 2.999999999999995559 ) ;
#86 = PLANE ( 'NONE',  #74 ) ;
#87 = CIRCLE ( 'NONE', #143, 3.000000000000006217 ) ;
#88 = APPLICATION_PROTOCOL_DEFINITION ( 'draft international standard', 'automotive_design', 1998, #145 ) ;
#89 = DIRECTION ( 'NONE',  ( 0.000000000000000000, 1.000000000000000000, 0.000000000000000000 ) ) ;
#90 = CARTESIAN_POINT ( 'NONE',  ( 0.000000000000000000, 0.000000000000000000, 0.000000000000000000 ) ) ;
#91 = ADVANCED_FACE ( 'NONE', ( #114 ), #55, .T. ) ;
#92 = FACE_OUTER_BOUND ( 'NONE', #106, .T. ) ;
#93 = DIRECTION ( 'NONE',  ( 0.000000000000000000, -0.000000000000000000, 1.000000000000000000 ) ) ;
#94 = CARTESIAN_POINT ( 'NONE',  ( -121.0666666666666629, 236.0000000000000284, -28.00000000000001776 ) ) ;
#95 = CIRCLE ( 'NONE', #52, 2.999999999999995559 ) ;
#96 = CARTESIAN_POINT ( 'NONE',  ( -121.0666666666666629, 236.0000000000000284, 28.00000000000001776 ) ) ;
#97 = CARTESIAN_POINT ( 'NONE',  ( -121.0666666666666629, 236.0000000000000284, 28.00000000000001776 ) ) ;
#98 = DIRECTION ( 'NONE',  ( -0.000000000000000000, -1.000000000000000000, -0.000000000000000000 ) ) ;
#99 =( GEOMETRIC_REPRESENTATION_CONTEXT ( 3 ) GLOBAL_UNCERTAINTY_ASSIGNED_CONTEXT ( ( #210 ) ) GLOBAL_UNIT_ASSIGNED_CONTEXT ( ( #103, #64, #65 ) ) REPRESENTATION_CONTEXT ( 'NONE', 'WORKASPACE' ) );
#100 = DIRECTION ( 'NONE',  ( 0.000000000000000000, 1.000000000000000000, 0.000000000000000000 ) ) ;
#101 = AXIS2_PLACEMENT_3D ( 'NONE', #32, #112, #161 ) ;
#102 = VERTEX_POINT ( 'NONE', #165 ) ;
#103 =( LENGTH_UNIT ( ) NAMED_UNIT ( * ) SI_UNIT ( .MILLI., .METRE. ) );
#104 = ORIENTED_EDGE ( 'NONE', *, *, #223, .F. ) ;
#105 =( LENGTH_UNIT ( ) NAMED_UNIT ( * ) SI_UNIT ( .MILLI., .METRE. ) );
#106 = EDGE_LOOP ( 'NONE', ( #157, #196 ) ) ;
#107 = CYLINDRICAL_SURFACE ( 'NONE', #47, 2.999999999999995559 ) ;
#108 = CARTESIAN_POINT ( 'NONE',  ( -121.0666666666666629, 6.000000000000000000, 28.00000000000001776 ) ) ;
#109 = VERTEX_POINT ( 'NONE', #167 ) ;
#110 = AXIS2_PLACEMENT_3D ( 'NONE', #61, #81, #133 ) ;
#111 = PRESENTATION_LAYER_ASSIGNMENT (  '', '', ( #70 ) ) ;
#112 = DIRECTION ( 'NONE',  ( 0.000000000000000000, 1.000000000000000000, 0.000000000000000000 ) ) ;
#113 = DIRECTION ( 'NONE',  ( -0.000000000000000000, -1.000000000000000000, -0.000000000000000000 ) ) ;
#114 = FACE_OUTER_BOUND ( 'NONE', #5, .T. ) ;
#115 = DIRECTION ( 'NONE',  ( 0.000000000000000000, 0.000000000000000000, -1.000000000000000000 ) ) ;
#116 = EDGE_CURVE ( 'NONE', #226, #9, #20, .T. ) ;
#117 = DIRECTION ( 'NONE',  ( 0.000000000000000000, 1.000000000000000000, 0.000000000000000000 ) ) ;
#118 = AXIS2_PLACEMENT_3D ( 'NONE', #18, #148, #219 ) ;
#119 = ORIENTED_EDGE ( 'NONE', *, *, #223, .T. ) ;
#120 = EDGE_CURVE ( 'NONE', #9, #102, #179, .T. ) ;
#121 = CARTESIAN_POINT ( 'NONE',  ( -121.0666666666666629, 236.0000000000000284, 28.00000000000001776 ) ) ;
#122 = EDGE_LOOP ( 'NONE', ( #178, #73, #222, #63 ) ) ;
#123 =( NAMED_UNIT ( * ) SI_UNIT ( $, .STERADIAN. ) SOLID_ANGLE_UNIT ( ) );
#124 = VERTEX_POINT ( 'NONE', #77 ) ;
#125 = FACE_OUTER_BOUND ( 'NONE', #44, .T. ) ;
#126 = CIRCLE ( 'NONE', #78, 3.000000000000006217 ) ;
#127 = CARTESIAN_POINT ( 'NONE',  ( -121.0666666666666629, 6.000000000000000000, 25.00000000000001066 ) ) ;
#128 = ORIENTED_EDGE ( 'NONE', *, *, #120, .F. ) ;
#129 = EDGE_CURVE ( 'NONE', #124, #71, #95, .T. ) ;
#130 = STYLED_ITEM ( 'NONE', ( #153 ), #187 ) ;
#131 = CARTESIAN_POINT ( 'NONE',  ( -121.0666666666666629, 236.0000000000000284, 31.00000000000002487 ) ) ;
#132 = ORIENTED_EDGE ( 'NONE', *, *, #67, .T. ) ;
#133 = DIRECTION ( 'NONE',  ( 0.000000000000000000, 0.000000000000000000, -1.000000000000000000 ) ) ;
#134 = DIRECTION ( 'NONE',  ( 0.000000000000000000, 1.000000000000000000, 0.000000000000000000 ) ) ;
#135 = CARTESIAN_POINT ( 'NONE',  ( -121.0666666666666629, 6.000000000000000000, -28.00000000000001776 ) ) ;
#136 = EDGE_CURVE ( 'NONE', #226, #109, #126, .T. ) ;
#137 = ORIENTED_EDGE ( 'NONE', *, *, #56, .F. ) ;
#138 = SURFACE_STYLE_USAGE ( .BOTH. , #186 ) ;
#139 =( NAMED_UNIT ( * ) PLANE_ANGLE_UNIT ( ) SI_UNIT ( $, .RADIAN. ) );
#140 = ADVANCED_FACE ( 'NONE', ( #220 ), #60, .T. ) ;
#141 = CARTESIAN_POINT ( 'NONE',  ( -121.0666666666666629, 6.000000000000000000, -28.00000000000001776 ) ) ;
#142 = CARTESIAN_POINT ( 'NONE',  ( -121.0666666666666629, 236.0000000000000284, -31.00000000000001421 ) ) ;
#143 = AXIS2_PLACEMENT_3D ( 'NONE', #121, #195, #84 ) ;
#144 = DIRECTION ( 'NONE',  ( 0.000000000000000000, 0.000000000000000000, 1.000000000000000000 ) ) ;
#145 = APPLICATION_CONTEXT ( 'automotive_design' ) ;
#146 = DIRECTION ( 'NONE',  ( 0.000000000000000000, 1.000000000000000000, 0.000000000000000000 ) ) ;
#147 = ORIENTED_EDGE ( 'NONE', *, *, #129, .F. ) ;
#148 = DIRECTION ( 'NONE',  ( 0.000000000000000000, 1.000000000000000000, 0.000000000000000000 ) ) ;
#149 = UNCERTAINTY_MEASURE_WITH_UNIT (LENGTH_MEASURE( 1.000000000000000082E-05 ), #105, 'distance_accuracy_value', 'NONE');
#150 = EDGE_CURVE ( 'NONE', #31, #175, #151, .T. ) ;
#151 = CIRCLE ( 'NONE', #48, 2.999999999999995559 ) ;
#152 = EDGE_LOOP ( 'NONE', ( #147, #203, #168, #66 ) ) ;
#153 = PRESENTATION_STYLE_ASSIGNMENT (( #24 ) ) ;
#154 = CARTESIAN_POINT ( 'NONE',  ( -121.0666666666666629, 6.000000000000000000, -31.00000000000001421 ) ) ;
#155 = EDGE_CURVE ( 'NONE', #124, #31, #75, .T. ) ;
#156 = SURFACE_STYLE_FILL_AREA ( #45 ) ;
#157 = ORIENTED_EDGE ( 'NONE', *, *, #37, .F. ) ;
#158 = VECTOR ( 'NONE', #15, 1000.000000000000000 ) ;
#159 = PLANE ( 'NONE',  #207 ) ;
#160 = PRODUCT_CONTEXT ( 'NONE', #145, 'mechanical' ) ;
#161 = DIRECTION ( 'NONE',  ( 0.000000000000000000, 0.000000000000000000, 1.000000000000000000 ) ) ;
#162 = DIRECTION ( 'NONE',  ( 0.000000000000000000, 0.000000000000000000, 1.000000000000000000 ) ) ;
#163 = MECHANICAL_DESIGN_GEOMETRIC_PRESENTATION_REPRESENTATION (  '', ( #70 ), #28 ) ;
#164 = DIRECTION ( 'NONE',  ( 0.000000000000000000, 0.000000000000000000, 1.000000000000000000 ) ) ;
#165 = CARTESIAN_POINT ( 'NONE',  ( -121.0666666666666629, 6.000000000000000000, 31.00000000000002487 ) ) ;
#166 = AXIS2_PLACEMENT_3D ( 'NONE', #54, #39, #185 ) ;
#167 = CARTESIAN_POINT ( 'NONE',  ( -121.0666666666666629, 236.0000000000000284, 31.00000000000002487 ) ) ;
#168 = ORIENTED_EDGE ( 'NONE', *, *, #150, .T. ) ;
#169 = PRODUCT_DEFINITION ( 'UNKNOWN', '', #173, #11 ) ;
#170 = DIRECTION ( 'NONE',  ( 0.000000000000000000, 1.000000000000000000, 0.000000000000000000 ) ) ;
#171 = AXIS2_PLACEMENT_3D ( 'NONE', #108, #170, #209 ) ;
#172 = DIRECTION ( 'NONE',  ( -0.000000000000000000, -1.000000000000000000, -0.000000000000000000 ) ) ;
#173 = PRODUCT_DEFINITION_FORMATION_WITH_SPECIFIED_SOURCE ( 'ANY', '', #180, .NOT_KNOWN. ) ;
#174 = DIRECTION ( 'NONE',  ( -0.000000000000000000, -1.000000000000000000, -0.000000000000000000 ) ) ;
#175 = VERTEX_POINT ( 'NONE', #154 ) ;
#176 = APPLICATION_CONTEXT ( 'automotive_design' ) ;
#177 = DIRECTION ( 'NONE',  ( 0.000000000000000000, 0.000000000000000000, 1.000000000000000000 ) ) ;
#178 = ORIENTED_EDGE ( 'NONE', *, *, #67, .F. ) ;
#179 = CIRCLE ( 'NONE', #216, 3.000000000000006217 ) ;
#180 = PRODUCT ( 'chassis body shaft_ AL 2pc', 'chassis body shaft_ AL 2pc', '', ( #160 ) ) ;
#181 = EDGE_CURVE ( 'NONE', #109, #226, #87, .T. ) ;
#182 = FACE_OUTER_BOUND ( 'NONE', #34, .T. ) ;
#183 = CLOSED_SHELL ( 'NONE', ( #140, #76, #91, #27 ) ) ;
#184 = FACE_OUTER_BOUND ( 'NONE', #152, .T. ) ;
#185 = DIRECTION ( 'NONE',  ( 0.000000000000000000, 0.000000000000000000, -1.000000000000000000 ) ) ;
#186 = SURFACE_SIDE_STYLE ('',( #156 ) ) ;
#187 = MANIFOLD_SOLID_BREP ( 'Boss-Extrude9[1]', #212 ) ;
#188 =( LENGTH_UNIT ( ) NAMED_UNIT ( * ) SI_UNIT ( .MILLI., .METRE. ) );
#189 = ORIENTED_EDGE ( 'NONE', *, *, #56, .T. ) ;
#190 = MANIFOLD_SOLID_BREP ( 'Boss-Extrude9[2]', #183 ) ;
#191 = CIRCLE ( 'NONE', #171, 3.000000000000006217 ) ;
#192 = ORIENTED_EDGE ( 'NONE', *, *, #181, .T. ) ;
#193 = AXIS2_PLACEMENT_3D ( 'NONE', #96, #98, #115 ) ;
#194 = SURFACE_SIDE_STYLE ('',( #10 ) ) ;
#195 = DIRECTION ( 'NONE',  ( 0.000000000000000000, 1.000000000000000000, 0.000000000000000000 ) ) ;
#196 = ORIENTED_EDGE ( 'NONE', *, *, #150, .F. ) ;
#197 = FACE_OUTER_BOUND ( 'NONE', #82, .T. ) ;
#198 = PRODUCT_DEFINITION_SHAPE ( 'NONE', 'NONE',  #169 ) ;
#199 = CARTESIAN_POINT ( 'NONE',  ( -121.0666666666666629, 6.000000000000000000, -25.00000000000002132 ) ) ;
#200 = ADVANCED_FACE ( 'NONE', ( #125 ), #107, .T. ) ;
#201 = EDGE_LOOP ( 'NONE', ( #42, #132, #119, #46 ) ) ;
#202 = LINE ( 'NONE', #131, #21 ) ;
#203 = ORIENTED_EDGE ( 'NONE', *, *, #155, .T. ) ;
#204 = CYLINDRICAL_SURFACE ( 'NONE', #193, 3.000000000000006217 ) ;
#205 = DIRECTION ( 'NONE',  ( 0.000000000000000000, -0.000000000000000000, 1.000000000000000000 ) ) ;
#206 = CARTESIAN_POINT ( 'NONE',  ( -121.0666666666666629, 6.000000000000000000, 28.00000000000001776 ) ) ;
#207 = AXIS2_PLACEMENT_3D ( 'NONE', #141, #50, #215 ) ;
#208 = COLOUR_RGB ( '',0.7921568627450980005, 0.8196078431372548767, 0.9333333333333333481 ) ;
#209 = DIRECTION ( 'NONE',  ( 0.000000000000000000, 0.000000000000000000, 1.000000000000000000 ) ) ;
#210 = UNCERTAINTY_MEASURE_WITH_UNIT (LENGTH_MEASURE( 1.000000000000000082E-05 ), #103, 'distance_accuracy_value', 'NONE');
#211 = ORIENTED_EDGE ( 'NONE', *, *, #136, .T. ) ;
#212 = CLOSED_SHELL ( 'NONE', ( #72, #200, #4, #30 ) ) ;
#213 = ORIENTED_EDGE ( 'NONE', *, *, #129, .T. ) ;
#214 = COLOUR_RGB ( '',0.7921568627450980005, 0.8196078431372548767, 0.9333333333333333481 ) ;
#215 = DIRECTION ( 'NONE',  ( 0.000000000000000000, -0.000000000000000000, 1.000000000000000000 ) ) ;
#216 = AXIS2_PLACEMENT_3D ( 'NONE', #206, #100, #164 ) ;
#217 = VECTOR ( 'NONE', #113, 1000.000000000000000 ) ;
#218 = DIRECTION ( 'NONE',  ( 0.000000000000000000, 0.000000000000000000, 1.000000000000000000 ) ) ;
#219 = DIRECTION ( 'NONE',  ( 0.000000000000000000, 0.000000000000000000, 1.000000000000000000 ) ) ;
#220 = FACE_OUTER_BOUND ( 'NONE', #201, .T. ) ;
#221 = CARTESIAN_POINT ( 'NONE',  ( -121.0666666666666629, 236.0000000000000284, 28.00000000000001776 ) ) ;
#222 = ORIENTED_EDGE ( 'NONE', *, *, #116, .T. ) ;
#223 = EDGE_CURVE ( 'NONE', #102, #9, #191, .T. ) ;
#224 = FILL_AREA_STYLE_COLOUR ( '', #208 ) ;
#225 = FILL_AREA_STYLE_COLOUR ( '', #214 ) ;
#226 = VERTEX_POINT ( 'NONE', #22 ) ;
#227 = DIRECTION ( 'NONE',  ( 0.000000000000000000, -0.000000000000000000, 1.000000000000000000 ) ) ;
#228 = PLANE ( 'NONE',  #6 ) ;
ENDSEC;
END-ISO-10303-21;
